<svg width="18" height="18" viewBox="0 0 18 18" fill="none" xmlns="http://www.w3.org/2000/svg">
<g clip-path="url(#clip0_5_4)">
<path d="M17.685 6.11791C17.3828 3.60775 15.0818 1.72181 12.4289 0.84857C13.6375 2.15677 14.5008 4.1888 14.5008 6.68236H15.4338L11.5623 10.9822C11.4793 10.9622 11.4029 10.9324 11.3133 10.9324H9.71952V6.68236H13.4383C13.4383 2.85736 11.1506 0.307359 9.18827 0.307359C7.22597 0.307359 4.93827 2.85736 4.93827 6.68236H8.65702V10.9324H7.06327C6.97362 10.9324 6.89726 10.9622 6.81425 10.9822L2.94276 6.68236H3.87577C3.87577 4.1888 4.73905 2.15677 5.94765 0.84857C3.29472 1.72513 0.993739 3.61107 0.691591 6.11791C0.655067 6.42005 0.917372 6.68236 1.22284 6.68236H1.51171L6.05058 11.7259C6.02733 11.8122 5.99745 11.8986 5.99745 11.9949V16.2449C5.99745 16.8326 6.47226 17.3074 7.05995 17.3074H11.31C11.8976 17.3074 12.3725 16.8326 12.3725 16.2449V11.9949C12.3725 11.8986 12.3426 11.8156 12.3193 11.7259L16.8615 6.68236H17.1504C17.4592 6.68236 17.7215 6.42337 17.685 6.11791Z" fill="#7F26C1"/>
</g>
<defs>
<clipPath id="clip0_5_4">
<rect width="17" height="17" fill="white" transform="translate(0.688312 0.307359)"/>
</clipPath>
</defs>
</svg>