<svg width="14" height="16" viewBox="0 0 14 16" fill="none" xmlns="http://www.w3.org/2000/svg">
<path d="M4.16269 14.1881C4.50113 14.6161 4.93241 14.9616 5.42393 15.1984C5.91546 15.4353 6.45438 15.5574 7 15.5554C7.54562 15.5574 8.08454 15.4353 8.57607 15.1984C9.06759 14.9616 9.49887 14.6161 9.83731 14.1881C7.95438 14.4434 6.04562 14.4434 4.16269 14.1881ZM12.25 5.44441V5.99196C12.25 6.64918 12.4366 7.29162 12.7882 7.83839L13.65 9.17849C14.4363 10.4027 13.8358 12.0664 12.4677 12.4529C8.89291 13.4655 5.10709 13.4655 1.53226 12.4529C0.164158 12.0664 -0.436282 10.4027 0.350046 9.17849L1.21182 7.83839C1.5646 7.28723 1.75167 6.64635 1.75081 5.99196V5.44441C1.75081 2.43754 4.10124 0 7 0C9.89876 0 12.25 2.43754 12.25 5.44441Z" fill="#67B2F8"/>
</svg>