<svg width="12" height="17" viewBox="0 0 12 17" fill="none" xmlns="http://www.w3.org/2000/svg">
<path d="M10.775 8.4865C10.1578 7.96909 9.37307 7.69445 8.56788 7.714H3.39211C3.15612 7.71995 2.92136 7.67823 2.70188 7.59133C2.48239 7.50444 2.2827 7.37414 2.11475 7.20825C1.9468 7.04237 1.81405 6.8443 1.72445 6.6259C1.63485 6.40751 1.59023 6.17328 1.59328 5.93724C1.58752 5.84536 1.58752 5.75322 1.59328 5.66134C1.66286 5.23956 1.88403 4.85769 2.21524 4.58744C2.54646 4.31718 2.96494 4.17713 3.39211 4.19359H8.49063C8.90652 4.19322 9.30903 4.34059 9.62637 4.60942C9.9437 4.87824 10.1552 5.25105 10.2232 5.66134H11.8786C11.8093 4.81042 11.4223 4.01673 10.7946 3.43807C10.1669 2.85942 9.34437 2.53818 8.49063 2.53822H6.74698V0H5.36751V2.53822H3.39211C2.53836 2.53818 1.71586 2.85942 1.08814 3.43807C0.460408 4.01673 0.0734265 4.81042 0.00412891 5.66134C-0.0013763 5.75323 -0.0013763 5.84536 0.00412891 5.93724C0.00412891 6.38215 0.0917615 6.82271 0.262023 7.23376C0.432285 7.64481 0.681842 8.0183 0.996445 8.3329C1.63181 8.96827 2.49356 9.32522 3.39211 9.32522H8.62306C8.85717 9.31932 9.0901 9.36036 9.30811 9.4459C9.52612 9.53144 9.7248 9.65975 9.89244 9.82328C10.0601 9.98681 10.1933 10.1822 10.2842 10.3981C10.3752 10.6139 10.422 10.8457 10.4219 11.0799C10.4333 11.2047 10.4333 11.3303 10.4219 11.4551C10.3343 11.8434 10.1172 12.1904 9.80638 12.439C9.49555 12.6877 9.1094 12.8233 8.71134 12.8236H3.52454C3.12648 12.8233 2.74033 12.6877 2.4295 12.439C2.11866 12.1904 1.90162 11.8434 1.81399 11.4551H0.147594C0.242433 12.2843 0.639019 13.0496 1.26178 13.6052C1.88455 14.1608 2.68995 14.4679 3.52454 14.4679H5.36751V16.973H6.74698V14.4679H8.62306C9.45764 14.4679 10.263 14.1608 10.8858 13.6052C11.5086 13.0496 11.9052 12.2843 12 11.4551V11.0799C11.9987 10.5842 11.8882 10.0949 11.6765 9.64669C11.4648 9.19848 11.157 8.80238 10.775 8.4865Z" fill="#53FF3C"/>
</svg>
