<svg width="16" height="15" viewBox="0 0 16 15" fill="none" xmlns="http://www.w3.org/2000/svg">
<path d="M15.4645 10.12L10.6526 2.09954C10.021 1.04713 9.05485 0.444824 8 0.444824C6.94515 0.444824 5.97902 1.04713 5.34742 2.09791L0.535489 10.12C-0.104256 11.1854 -0.174254 12.3216 0.344217 13.2373C0.861873 14.1538 1.87277 14.6796 3.11645 14.6796H12.8836C14.1272 14.6796 15.1381 14.1538 15.6558 13.2381C16.1743 12.3224 16.1043 11.1862 15.4645 10.12ZM8 11.8707C7.30491 11.8707 6.73842 11.305 6.73842 10.6099C6.73842 9.91403 7.30409 9.34754 8 9.34754C8.69591 9.34754 9.26159 9.91403 9.26159 10.6099C9.26159 11.305 8.69509 11.8707 8 11.8707ZM9.32914 5.82813C9.32019 5.85336 8.18883 8.65082 8.18883 8.65082C8.1579 8.72733 8.08302 8.77779 8.00081 8.77779C7.91861 8.77779 7.84373 8.72733 7.8128 8.65082L6.68063 5.85255C6.61224 5.68307 6.57662 5.50217 6.57563 5.31942C6.57563 4.53399 7.21456 3.89505 8 3.89505C8.23068 3.89565 8.45778 3.95219 8.6618 4.05984C8.86582 4.16749 9.04069 4.32303 9.17139 4.51312C9.30208 4.7032 9.38472 4.92216 9.41219 5.1512C9.43967 5.38024 9.41117 5.61252 9.32914 5.82813Z" fill="#F4B56B"/>
</svg>
