<svg width="16" height="16" viewBox="0 0 16 16" fill="none" xmlns="http://www.w3.org/2000/svg">
<path d="M8 0C12.4184 0 16 3.5824 16 8C16 12.4176 12.4184 16 8 16C3.5816 16 0 12.4176 0 8C0 3.5824 3.5816 0 8 0ZM8.0016 10.4032C7.89457 10.3998 7.78796 10.418 7.68808 10.4566C7.58821 10.4952 7.49711 10.5535 7.42021 10.628C7.3433 10.7025 7.28215 10.7917 7.2404 10.8903C7.19864 10.9889 7.17712 11.0949 7.17712 11.202C7.17712 11.3091 7.19864 11.4151 7.2404 11.5137C7.28215 11.6123 7.3433 11.7015 7.42021 11.776C7.49711 11.8505 7.58821 11.9088 7.68808 11.9474C7.78796 11.986 7.89457 12.0042 8.0016 12.0008C8.20908 11.9942 8.40586 11.9072 8.55031 11.7581C8.69475 11.609 8.77552 11.4096 8.77552 11.202C8.77552 10.9944 8.69475 10.795 8.55031 10.6459C8.40586 10.4968 8.20908 10.4098 8.0016 10.4032ZM8 4C7.80393 4.00005 7.61471 4.0721 7.46826 4.20247C7.32181 4.33284 7.22834 4.51245 7.2056 4.7072L7.2 4.8L7.2016 8.8008L7.2072 8.8944C7.23033 9.08884 7.32396 9.26805 7.47037 9.39807C7.61678 9.52809 7.80579 9.59991 8.0016 9.59991C8.19741 9.59991 8.38642 9.52809 8.53283 9.39807C8.67924 9.26805 8.77287 9.08884 8.796 8.8944L8.8016 8.8008L8.8 4.8L8.7944 4.7064C8.77147 4.5118 8.67793 4.33238 8.5315 4.20217C8.38507 4.07196 8.19595 4.00003 8 4Z" fill="#F46B6B"/>
</svg>
