<svg width="17" height="17" viewBox="0 0 17 17" fill="none" xmlns="http://www.w3.org/2000/svg">
<path fill-rule="evenodd" clip-rule="evenodd" d="M16.0375 8.92514C16.0375 13.3176 12.4769 16.8782 8.08444 16.8782C3.69195 16.8782 0.131348 13.3176 0.131348 8.92514C0.131348 4.53265 3.69195 0.972046 8.08444 0.972046C12.4769 0.972046 16.0375 4.53265 16.0375 8.92514ZM11.2895 6.51535C11.4012 6.62719 11.464 6.7788 11.464 6.93687C11.464 7.09494 11.4012 7.24654 11.2895 7.35838L7.31299 11.3349C7.20115 11.4466 7.04955 11.5094 6.89148 11.5094C6.73341 11.5094 6.58181 11.4466 6.46996 11.3349L4.87935 9.74431C4.82074 9.6897 4.77374 9.62385 4.74114 9.55068C4.70853 9.47751 4.691 9.39853 4.68959 9.31844C4.68818 9.23835 4.70291 9.1588 4.73291 9.08452C4.76291 9.01025 4.80756 8.94278 4.8642 8.88614C4.92084 8.8295 4.98831 8.78485 5.06259 8.75485C5.13686 8.72485 5.21641 8.71011 5.2965 8.71153C5.37659 8.71294 5.45558 8.73047 5.52875 8.76307C5.60191 8.79567 5.66777 8.84268 5.72237 8.90128L6.89148 10.0704L8.66899 8.29207L10.4465 6.51535C10.5584 6.40365 10.71 6.34091 10.868 6.34091C11.0261 6.34091 11.1777 6.40365 11.2895 6.51535Z" fill="#B9F182" fill-opacity="0.9"/>
</svg>
