<?xml version="1.0" encoding="iso-8859-1"?>
<!-- Generator: Adobe Illustrator 18.0.0, SVG Export Plug-In . SVG Version: 6.00 Build 0)  -->
<!DOCTYPE svg PUBLIC "-//W3C//DTD SVG 1.1//EN" "http://www.w3.org/Graphics/SVG/1.1/DTD/svg11.dtd">
<svg version="1.1" id="Capa_1" xmlns="http://www.w3.org/2000/svg" xmlns:xlink="http://www.w3.org/1999/xlink" x="0px" y="0px"
	 viewBox="0 0 272.965 272.965" style="enable-background:new 0 0 272.965 272.965;" xml:space="preserve" fill="#fff">
<path d="M272.284,230.619c-1.65-5.728-6.117-10.204-11.836-11.883l-4.048-1.189c-24.108-4.42-89.153-11.188-141.084-72.957
	c-9.466-11.26-19.554-17.534-20.671-53.537V17.927c0-5.735-4.649-10.385-10.385-10.385h-66.14c-2.879,0-5.63,1.196-7.594,3.301
	c-1.964,2.106-2.966,4.932-2.766,7.805l7.783,111.802c0.969,13.919-1.387,27.868-6.873,40.697l-1.683,3.937
	c-10.764,20.667-8.986,45.631,4.596,64.564c13.583,18.933,36.661,28.616,59.687,25.042l12.585-1.954
	c13.44-2.086,27.051-2.861,40.641-2.315l102.858,4.138c15.681,0.631,30.816-5.819,41.222-17.567l0.009-0.01
	C272.538,242.52,273.934,236.346,272.284,230.619z M32.742,153.312c1.278-3.939,5.507-6.096,9.446-4.818
	c3.939,1.278,6.096,5.507,4.818,9.446c-1.278,3.939-5.507,6.096-9.446,4.818C33.622,161.48,31.464,157.251,32.742,153.312z
	 M68.862,218.174c-1.217,2.849-3.987,4.557-6.901,4.557c-0.982,0-1.98-0.194-2.941-0.604c-16.925-7.228-27.777-23.787-27.648-42.189
	l0.027-3.907c0.029-4.124,3.382-7.447,7.499-7.447c0.018,0,0.035,0,0.054,0c4.142,0.029,7.475,3.41,7.447,7.553l-0.027,3.907
	c-0.087,12.339,7.19,23.443,18.539,28.289C68.72,209.958,70.489,214.365,68.862,218.174z"/>
<g>
</g>
<g>
</g>
<g>
</g>
<g>
</g>
<g>
</g>
<g>
</g>
<g>
</g>
<g>
</g>
<g>
</g>
<g>
</g>
<g>
</g>
<g>
</g>
<g>
</g>
<g>
</g>
<g>
</g>
</svg>
